<svg id="Layer_1" enable-background="new 0 0 512 512" height="512" viewBox="0 0 512 512" width="512" xmlns="http://www.w3.org/2000/svg"><g><ellipse cx="190.5" cy="190.5" fill="#efefef" rx="183" ry="183" transform="matrix(.707 -.707 .707 .707 -78.908 190.5)"/><path d="m190.5 7.5c-5.053 0-10.054.213-15.002.614 94.183 7.635 168.002 86.513 168.002 182.386 0 95.946-73.917 174.746-167.996 182.384 4.947.402 9.946.616 14.996.616 101.104 0 183-82.007 183-183 0-100.909-81.773-183-183-183z" fill="#dcdcdc"/><path d="m190.5 120.409-68.629 49.863 26.214 80.678h84.83l26.214-80.678z" fill="#fece3f"/><path d="m190.5 120.409-15 10.898 47.848 34.764c3.447 2.504 4.89 6.944 3.573 10.996l-24.006 73.883h30l26.214-80.679z" fill="#fdb720"/><g><path d="m253.738 18.729-63.238 45.932-63.238-45.932c19.716-7.259 41.007-11.229 63.238-11.229s43.522 3.97 63.238 11.229z" fill="#2387eb"/><path d="m175.517 8.116c23.945 1.943 46.568 8.5 67.001 18.762l11.219-8.149c-19.715-7.259-41.006-11.229-63.237-11.229-5.046 0-10.041.215-14.983.616z" fill="#207bd6"/><g fill="#2387eb"><path d="m70.829 151.615-63.177 45.887c-.106-2.319-.152-4.653-.152-7.002 0-42.719 14.639-82.029 39.188-113.17z"/><path d="m140.689 366.636c-42.295-11.941-78.377-38.703-102.259-74.33h78.104z"/><path d="m342.571 292.305c-23.883 35.627-59.964 62.389-102.259 74.33l24.156-74.33z"/></g><path d="m342.571 292.305h-30.002c-17.097 25.483-40.429 46.436-67.818 60.669l-4.439 13.661c42.294-11.941 78.376-38.703 102.259-74.33z" fill="#207bd6"/><path d="m373.5 190.5c0 2.349-.046 4.682-.152 7.001l-63.177-45.887 24.14-74.285c24.55 31.143 39.189 70.452 39.189 113.171z" fill="#2387eb"/><path d="m373.5 190.5c0-42.719-14.639-82.029-39.188-113.17l-10.152 31.24c10.229 20.392 16.756 42.951 18.71 66.794l30.479 22.137c.105-2.318.151-4.652.151-7.001z" fill="#207bd6"/></g><g><path d="m317.93 48.892c-3.076-2.771-7.818-2.524-10.593.553-2.771 3.078-2.523 7.82.554 10.592 6.511 5.864 12.521 12.181 18.023 18.867l-21.747 66.92-43.861 16.032-62.306-45.267v-48.106l56.844-41.288c9.905 3.9 19.475 8.695 28.575 14.387 3.511 2.197 8.14 1.13 10.335-2.382 2.196-3.512 1.13-8.14-2.382-10.336-30.192-18.883-65.073-28.864-100.872-28.864-33.135 0-65.759 8.63-94.344 24.958-27.684 15.813-51.171 38.532-67.92 65.703-2.173 3.526-1.077 8.146 2.449 10.32 1.227.756 2.586 1.117 3.929 1.117 2.516 0 4.974-1.266 6.392-3.565 1.009-1.637 2.048-3.254 3.109-4.855l17.897 55.072-46.839 34.02c.845-19.584 4.899-38.671 12.094-56.841 1.525-3.852-.36-8.209-4.211-9.735-3.85-1.523-8.21.36-9.734 4.212-8.841 22.319-13.322 45.902-13.322 70.094 0 105.042 85.458 190.5 190.5 190.5s190.5-85.458 190.5-190.5c0-53.894-22.988-105.508-63.07-141.608zm20.525 235.905-70.426-.186-26.767-35.083 23.87-73.465 43.861-16.032 56.67 41.16c-1.848 30.633-11.582 59.174-27.208 83.606zm-1.589-191.062c17.396 26.344 27.532 57.112 28.948 89.026l-46.826-34.011zm-109.4 149.715h-73.932l-22.847-70.314 59.813-43.456 59.812 43.456zm9.891-222.093-46.857 34.035-46.846-34.027c15.181-4.19 30.946-6.365 46.846-6.365 15.951 0 31.698 2.17 46.857 6.357zm-182.272 57.544c13.543-16.41 30.001-30.346 48.51-40.919 7.259-4.146 14.81-7.733 22.567-10.783l56.838 41.284v48.106l-62.305 45.268-43.861-16.032zm16.92 81.129 43.861 16.032 23.87 73.465-26.915 35.278h-70.271c-15.629-24.434-25.364-52.978-27.215-83.615zm-18.704 139.775h57.783l17.892 55.055c-29.957-11.25-56.044-30.465-75.675-55.055zm196.01 56.047 4.563-14.04c1.28-3.939-.875-8.17-4.814-9.451-3.938-1.281-8.17.875-9.451 4.815l-7.765 23.892c-13.264 3.215-27.106 4.932-41.344 4.932-15.169 0-29.893-1.936-43.942-5.571l-21.677-66.701 26.915-35.278h77.407l25.239 33.08-4.911 15.112c-1.28 3.939.876 8.17 4.815 9.451.77.25 1.551.369 2.319.369 3.161 0 6.101-2.015 7.131-5.184l3.792-11.669 60.14.159c-20.224 25.348-47.308 44.986-78.417 56.084z"/><path d="m144.761 388.03c-2.93-2.929-7.678-2.929-10.607 0s-2.929 7.678 0 10.606l66.903 66.903c1.465 1.464 3.385 2.197 5.304 2.197s3.839-.732 5.304-2.197c2.929-2.929 2.929-7.678 0-10.606z"/><path d="m247.658 389.329c-2.93-2.929-7.678-2.929-10.607 0s-2.929 7.678 0 10.606l65.006 65.005c1.465 1.464 3.385 2.197 5.304 2.197s3.839-.732 5.304-2.197c2.929-2.929 2.929-7.678 0-10.606z"/><path d="m476.486 330.795c1.919 0 3.839-.732 5.304-2.197 2.929-2.929 2.929-7.678 0-10.606l-65.006-65.006c-2.93-2.929-7.678-2.929-10.607 0s-2.929 7.678 0 10.606l65.006 65.006c1.464 1.465 3.384 2.197 5.303 2.197z"/><path d="m480.147 233.773c1.465 1.465 3.384 2.197 5.304 2.197 1.919 0 3.839-.732 5.304-2.197 2.929-2.929 2.929-7.678 0-10.606l-82.935-82.936c-2.929-2.929-7.677-2.93-10.607 0-2.929 2.929-2.929 7.678 0 10.606z"/><path d="m474.382 411.581c1.465 1.465 3.384 2.197 5.304 2.197 1.919 0 3.839-.732 5.304-2.197 2.929-2.929 2.929-7.678 0-10.606l-39.642-39.642c-2.929-2.929-7.677-2.93-10.607 0-2.929 2.929-2.929 7.678 0 10.606z"/><path d="m347.874 414.875c-2.93-2.929-7.678-2.929-10.607 0s-2.929 7.678 0 10.606l39.643 39.643c1.465 1.464 3.385 2.197 5.304 2.197s3.839-.732 5.304-2.197c2.929-2.929 2.929-7.678 0-10.606z"/><path d="m509.803 499.197-154.73-154.731c-2.929-2.929-7.677-2.929-10.607 0-2.929 2.929-2.929 7.678 0 10.606l154.73 154.731c1.465 1.464 3.384 2.197 5.304 2.197 1.919 0 3.839-.732 5.304-2.197 2.928-2.928 2.928-7.678-.001-10.606z"/></g></g></svg>